HIERARCHY
ROOT RootJoint
{
    OFFSET   0.000000   0.000000   0.000000
    CHANNELS 6 Xposition Yposition Zposition Xrotation Yrotation Zrotation
    JOINT pelvis_lowerback
    {
        OFFSET   0.000000   0.093605   0.000000
        CHANNELS 3 Xrotation Yrotation Zrotation
        JOINT lowerback_torso
        {
            OFFSET   0.000000   0.100000   0.000000
            CHANNELS 3 Xrotation Yrotation Zrotation
            JOINT torso_head
            {
                OFFSET   0.000000   0.282350   0.000000
                CHANNELS 3 Xrotation Yrotation Zrotation
                End Site
                {
                    OFFSET   0.000000   0.192650   0.000000
                }
            }
            JOINT rTorso_Clavicle
            {
                OFFSET  -0.001000   0.157500   0.000000
                CHANNELS 3 Xrotation Yrotation Zrotation
                JOINT rShoulder
                {
                    OFFSET  -0.117647   0.000000   0.000000
                    CHANNELS 3 Xrotation Yrotation Zrotation
                    JOINT rElbow
                    {
                        OFFSET  -0.245000   0.000000   0.000000
                        CHANNELS 3 Xrotation Yrotation Zrotation
                        JOINT rWrist
                        {
                            OFFSET  -0.240000   0.000000   0.000000
                            CHANNELS 3 Xrotation Yrotation Zrotation
                            End Site
                            {
                                OFFSET  -0.116353  -0.002500   0.000000
                            }
                        }
                    }
                }
            }
            JOINT lTorso_Clavicle
            {
                OFFSET   0.001000   0.157500   0.000000
                CHANNELS 3 Xrotation Yrotation Zrotation
                JOINT lShoulder
                {
                    OFFSET   0.117647   0.000000   0.000000
                    CHANNELS 3 Xrotation Yrotation Zrotation
                    JOINT lElbow
                    {
                        OFFSET   0.245000   0.000000   0.000000
                        CHANNELS 3 Xrotation Yrotation Zrotation
                        JOINT lWrist
                        {
                            OFFSET   0.240000   0.000000   0.000000
                            CHANNELS 3 Xrotation Yrotation Zrotation
                            End Site
                            {
                                OFFSET   0.116353  -0.002500   0.000000
                            }
                        }
                    }
                }
            }
        }
    }
    JOINT rHip
    {
        OFFSET  -0.100000  -0.051395   0.000000
        CHANNELS 3 Xrotation Yrotation Zrotation
        JOINT rKnee
        {
            OFFSET   0.000000  -0.410000   0.000000
            CHANNELS 3 Xrotation Yrotation Zrotation
            JOINT rAnkle
            {
                OFFSET   0.000000  -0.390000   0.000000
                CHANNELS 3 Xrotation Yrotation Zrotation
                JOINT rToeJoint
                {
                    OFFSET   0.000000  -0.050000   0.130000
                    CHANNELS 3 Xrotation Yrotation Zrotation
                    End Site
                    {
                        OFFSET  -0.010000   0.002000   0.060000
                    }
                }
            }
        }
    }
    JOINT lHip
    {
        OFFSET   0.100000  -0.051395   0.000000
        CHANNELS 3 Xrotation Yrotation Zrotation
        JOINT lKnee
        {
            OFFSET   0.000000  -0.410000   0.000000
            CHANNELS 3 Xrotation Yrotation Zrotation
            JOINT lAnkle
            {
                OFFSET   0.000000  -0.390000   0.000000
                CHANNELS 3 Xrotation Yrotation Zrotation
                JOINT lToeJoint
                {
                    OFFSET   0.000000  -0.050000   0.130000
                    CHANNELS 3 Xrotation Yrotation Zrotation
                    End Site
                    {
                        OFFSET   0.010000   0.002000   0.060000
                    }
                }
            }
        }
    }
}
MOTION
Frames: 14
Frame Time:   0.008333
 -1.671408   0.800789   3.655458 123.684202  53.994558 -119.109121  83.124736   3.060178   9.246466  -0.845341   2.321168  -5.817871  -0.237411 -12.492841 -10.153442  -3.342413  43.045728 -26.962965 -31.435764  19.369826 -13.336906  -0.000037   9.315945   0.001942   4.708370   1.119143 -24.295893  -7.425692  -7.584673  -2.247876  13.512375   1.030896 -43.425463   0.000199 -63.889468  -0.000207   1.803699  -9.842341  10.293975 -77.401474  -7.057757 -16.461995  57.780167   0.000084  -0.000184 -13.212556 -10.015309  -0.323211  -0.277108  -0.000012  -0.000007 -62.313350   5.379492   6.845867  50.930459   0.000079  -0.001660 -15.567812   1.185268  -8.116475  -2.166702  -0.000774  -0.000139
 -1.671531   0.801486   3.656402 123.770123  53.809590 -119.046958  83.025580   3.010859   9.302942  -0.846253   2.188665  -5.810962  -0.246114 -12.506365 -10.223514  -3.319819  42.965898 -27.098402 -31.265221  19.281627 -13.268664  -0.000121   9.215231   0.001858   4.683047   1.095397 -24.001279  -7.541519  -7.692440  -2.214258  13.278201   0.940773 -43.376343   0.000405 -63.724395   0.000003   1.816642  -9.839181  10.171476 -77.480258  -6.957307 -16.534210  57.625343   0.000098  -0.000254 -13.147548 -10.086709  -0.317775  -0.266525  -0.000014  -0.000006 -62.288254   5.553317   6.758172  50.505935   0.000034  -0.001873 -15.212279   1.032562  -8.316332  -1.841377  -0.000138  -0.000077
 -1.671642   0.802340   3.657295 123.831618  53.616733 -118.968247  82.911346   2.965311   9.367178  -0.843514   2.059440  -5.803652  -0.251640 -12.518415 -10.292961  -3.289922  42.890979 -27.218074 -31.104580  19.196743 -13.191500  -0.000206   9.120705   0.001752   4.663783   1.077038 -23.678180  -7.657406  -7.800527  -2.186543  13.052031   0.849521 -43.331969   0.000538 -63.573401   0.000137   1.828462  -9.836514  10.054434 -77.544433  -6.864870 -16.598717  57.420629   0.000114  -0.000337 -13.061544 -10.155324  -0.299440  -0.253621  -0.000017  -0.000004 -62.242083   5.730961   6.667543  50.022735  -0.000019  -0.002089 -14.858139   0.879929  -8.490657  -2.022555  -0.000349  -0.000063
 -1.671755   0.803219   3.658145 123.885310  53.433702 -118.893599  82.792218   2.923089   9.434592  -0.839053   1.940067  -5.791732  -0.256649 -12.529548 -10.358036  -3.255783  42.822167 -27.320798 -30.954391  19.115510 -13.109018  -0.000273   9.032039   0.001628   4.645959   1.060249 -23.345747  -7.765832  -7.901435  -2.162607  12.840678   0.762613 -43.292442   0.000635 -63.433862   0.000236   1.839807  -9.834178   9.937772 -77.593647  -6.784243 -16.656556  57.201026   0.000127  -0.000404 -12.960404 -10.218709  -0.269419  -0.289547   0.000006  -0.000004 -62.186818   5.902574   6.582431  49.538673  -0.000068  -0.002241 -14.512178   0.736674  -8.646886  -2.176268  -0.000463  -0.000058
 -1.671881   0.804077   3.658944 123.930164  53.266053 -118.819667  82.672043   2.884241   9.502496  -0.835161   1.830651  -5.776755  -0.262210 -12.539835 -10.418877  -3.220598  42.758146 -27.409504 -30.814280  19.037653 -13.024968  -0.000319   8.948671   0.001491   4.628376   1.042716 -23.012927  -7.865720  -7.993790  -2.141543  12.644657   0.681606 -43.257221   0.000716 -63.303797   0.000320   1.850689  -9.832136   9.821936 -77.632735  -6.711660 -16.706246  56.983640   0.000138  -0.000445 -12.870158 -10.276375  -0.244008  -0.265300  -0.000008  -0.000003 -62.127228   6.065964   6.504188  49.071673  -0.000103  -0.002305 -14.179760   0.602783  -8.788242  -2.311943  -0.000519  -0.000054
 -1.672029   0.804769   3.659630 123.944776  53.132225 -118.752865  82.544193   2.858738   9.570538  -0.827652   1.739803  -5.765819  -0.267348 -12.549123 -10.476728  -3.181536  42.700442 -27.486457 -30.682836  18.965432 -12.938631  -0.000339   8.871487   0.001344   4.613339   1.029896 -22.681772  -7.952346  -8.070900  -2.128967  12.467916   0.609262 -43.230774   0.000798 -63.180857   0.000407   1.861199  -9.830356   9.701699 -77.664095  -6.659543 -16.726727  56.794754   0.000138  -0.000449 -12.788735 -10.327697  -0.219299  -0.244117  -0.000017  -0.000002 -62.028654   6.241075   6.452098  48.610464  -0.000230  -0.002366 -13.781059   0.501345  -8.893439  -3.402108  -0.001454  -0.000646
 -1.672199   0.805513   3.660326 123.990098  52.985904 -118.696725  82.425684   2.825947   9.645761  -0.833649   1.648639  -5.738602  -0.275598 -12.557669 -10.528118  -3.151121  42.642953 -27.555093 -30.561574  18.893674 -12.859681  -0.000343   8.797326   0.001206   4.594701   1.007972 -22.362637  -8.036434  -8.146962  -2.109453  12.299970   0.540953 -43.201300   0.000860 -63.066881   0.000467   1.870968  -9.828836   9.593069 -77.697669  -6.598158 -16.772402  56.600065   0.000138  -0.000456 -12.703294 -10.379335  -0.194209  -0.224730  -0.000023  -0.000002 -61.977639   6.389819   6.384063  48.206703  -0.000237  -0.002314 -13.527225   0.392263  -9.027809  -3.280940  -0.001033  -0.000492
 -1.672333   0.806546   3.660952 124.035886  52.885207 -118.577784  82.287003   2.742308   9.691506  -0.793236   1.546111  -5.719711  -0.258690 -12.549801 -10.575464  -3.119970  42.558305 -27.622795 -30.326125  18.786951 -12.663090  -0.000485   8.706457   0.001228   4.571542   0.985983 -22.054908  -8.098832  -8.251352  -2.031494  12.065374   0.418965 -43.223560   0.000927 -62.943098   0.000527   1.871105  -9.783448   9.429154 -77.660828  -6.483302 -16.824754  56.345275   0.000131  -0.000453 -12.593228 -10.415625  -0.129361  -0.199246  -0.000037  -0.000001 -61.835973   6.563181   6.280628  47.725919  -0.000160  -0.002166 -13.148465   0.277426  -9.232677  -3.337882  -0.000918  -0.000387
 -1.672463   0.807669   3.661514 124.072536  52.812234 -118.453105  82.131512   2.658446   9.734483  -0.746538   1.446689  -5.705123  -0.244871 -12.541020 -10.624769  -3.061740  42.485356 -27.658741 -30.103248  18.682104 -12.438148  -0.000621   8.620175   0.001206   4.555454   0.969689 -21.676241  -8.165011  -8.360177  -1.965171  11.838530   0.293399 -43.248400   0.000982 -62.833261   0.000587   1.874543  -9.760648   9.249461 -77.586759  -6.378031 -16.867967  56.061544   0.000130  -0.000430 -12.470702 -10.439461  -0.057915  -0.173695  -0.000050  -0.000001 -61.668463   6.731368   6.180813  47.242332  -0.000091  -0.001978 -12.745655   0.166889  -9.408633  -3.459571  -0.000903  -0.000286
 -1.672605   0.808790   3.662018 124.104055  52.761912 -118.332145  81.965183   2.579095   9.777790  -0.703444   1.355849  -5.689805  -0.236517 -12.532077 -10.672859  -2.991123  42.421617 -27.671936 -29.894283  18.580681 -12.203003  -0.000720   8.538599   0.001145   4.540479   0.954357 -21.260082  -8.228935  -8.464496  -1.909875  11.624674   0.171550 -43.276018   0.001039 -62.733488   0.000658   1.880875  -9.758214   9.065876 -77.492150  -6.283164 -16.903882  55.772648   0.000130  -0.000390 -12.344573 -10.454507   0.015368  -0.148945  -0.000059  -0.000001 -61.490116   6.891216   6.088178  46.776327  -0.000041  -0.001774 -12.345818   0.064403  -9.563311  -3.611225  -0.000909  -0.000198
 -1.672768   0.809868   3.662468 124.132057  52.730553 -118.215897  81.792100   2.505219   9.822526  -0.667642   1.274069  -5.672345  -0.232491 -12.523122 -10.718611  -2.917084  42.363781 -27.670530 -29.698925  18.483191 -11.968714  -0.000775   8.461443   0.001057   4.525208   0.937204 -20.829862  -8.288485  -8.561386  -1.862551  11.425084   0.056323 -43.305224   0.001100 -62.641497   0.000736   1.888402  -9.766460   8.883667 -77.386726  -6.195720 -16.934405  55.490256   0.000129  -0.000339 -12.218852 -10.462681   0.087863  -0.125428  -0.000065  -0.000000 -61.307920   7.042553   6.002476  46.335347  -0.000006  -0.001568 -11.960221  -0.031027  -9.702216  -3.776669  -0.000913  -0.000123
 -1.672955   0.810884   3.662872 124.156805  52.715239 -118.103627  81.615163   2.436788   9.868997  -0.640587   1.200627  -5.652483  -0.231512 -12.514287 -10.761651  -2.844913  42.309762 -27.660231 -29.516585  18.390039 -11.742059  -0.000787   8.388544   0.000954   4.509280   0.917340 -20.400602  -8.343157  -8.650106  -1.820639  11.239559  -0.051146 -43.334676   0.001163 -62.555944   0.000813   1.896107  -9.778980   8.706185 -77.276181  -6.113562 -16.960623  55.219679   0.000128  -0.000283 -12.095419 -10.465070   0.158298  -0.103259  -0.000069  -0.000000 -61.125848   7.185549   5.923133  45.921913   0.000020  -0.001366 -11.593612  -0.120380  -9.828669  -3.947394  -0.000907  -0.000058
 -1.673165   0.811834   3.663233 124.178229  52.713590 -117.994486  81.436405   2.373372   9.917153  -0.622679   1.134542  -5.630323  -0.232596 -12.505676 -10.801872  -2.777480  42.258365 -27.644899 -29.346554  18.301497 -11.526875  -0.000765   8.319784   0.000843   4.492733   0.894800 -19.981532  -8.393099  -8.730834  -1.782312  11.067328  -0.150615 -43.363333   0.001222 -62.476003   0.000885   1.903502  -9.792319   8.535601 -77.163900  -6.035420 -16.983168  54.963129   0.000125  -0.000226 -11.975215 -10.462418   0.226090  -0.082409  -0.000070   0.000000 -60.946267   7.320437   5.849639  45.536317   0.000039  -0.001172 -11.247742  -0.204330  -9.944762  -4.118539  -0.000889  -0.000002
 -1.673317   0.813176   3.663610 124.191717  52.738155 -117.848609  81.194920   2.274236   9.921179  -0.526871   1.058528  -5.598809  -0.238338 -12.457240 -10.824473  -2.790515  42.138611 -27.587759 -29.057047  18.206251 -11.128920  -0.000699   8.294805   0.000732   4.472641   0.869807 -19.605908  -8.427908  -8.818127  -1.704034  10.789149  -0.259913 -43.396452   0.001779 -62.310554   0.001382   1.911980  -9.804562   8.278652 -76.965548  -5.923068 -16.984682  54.601914   0.000092  -0.000231 -11.813028 -10.477698   0.321829  -0.057342  -0.000077   0.000000 -60.675241   7.433137   5.758000  45.022376   0.000237  -0.000818 -10.772068  -0.343532 -10.139725  -4.427733  -0.001163   0.000331
